<?xml version="1.0" encoding="UTF-8"?>
<svg width="244px" height="436px" viewBox="0 0 244 436" version="1.1" xmlns="http://www.w3.org/2000/svg" xmlns:xlink="http://www.w3.org/1999/xlink">
    <!-- Generator: Sketch 55.2 (78181) - https://sketchapp.com -->
    <title>edited-svg</title>
    <desc>Created with Sketch.</desc>
    <g id="Page-1" stroke="none" stroke-width="1" fill="none" fill-rule="evenodd">
        <g id="shuyuhi" transform="translate(0.000000, 1.000000)">
            <rect id="svg_8" fill="#1CB3A0" fill-rule="nonzero" x="0" y="0" width="113" height="5"></rect>
            <path d="M56.92,204.74 L56.92,174.74" id="svg_18" stroke="#5AAAFA" stroke-width="2"></path>
            <g id="svg_19" transform="translate(97.000000, 106.000000)">
                <g id="svg_20">
                    <path d="M24.82,6.74 L0.34,6.87" id="svg_21" stroke="#5AAAFA" stroke-width="2"></path>
                    <g id="svg_22" transform="translate(22.000000, 0.000000)" fill="#5AAAFA" fill-rule="nonzero">
                        <polygon id="svg_23" points="0.83 0.23 12.21 6.69 0.9 13.27"></polygon>
                    </g>
                </g>
            </g>
            <path d="M56.92,335.68 L56.92,305.68" id="svg_171" stroke="#5AAAFA" stroke-width="2"></path>
            <g id="svg_210" transform="translate(98.000000, 244.000000)" stroke="#5AAAFA" stroke-width="2">
                <g id="svg_211">
                    <path d="M71.9,0.85 L0.31,0.85" id="svg_212"></path>
                </g>
            </g>
            <rect id="svg_318" fill="#FC5255" fill-rule="nonzero" x="130" y="0" width="113" height="5"></rect>
            <g id="svg_363" transform="translate(164.000000, 189.000000)" fill="#5AAAFA" fill-rule="nonzero">
                <g id="svg_365">
                    <polygon id="e1_366" points="13.04 12.1018182 6.91 0.626363636 0.91 12.1018182"></polygon>
                </g>
            </g>
            <g id="svg_363" transform="translate(164.000000, 189.000000)" fill="#5AAAFA" fill-rule="nonzero">
                <g id="svg_365">
                    <polygon id="e1_366" points="13.04 12.1018182 6.91 0.626363636 0.91 12.1018182"></polygon>
                </g>
            </g>
            <g id="svg_363" transform="translate(164.000000, 189.000000)" fill="#5AAAFA" fill-rule="nonzero">
                <g id="svg_365">
                    <polygon id="e1_366" points="13.04 12.1018182 6.91 0.626363636 0.91 12.1018182"></polygon>
                </g>
            </g>
            <g id="svg_363" transform="translate(164.000000, 189.000000)" fill="#5AAAFA" fill-rule="nonzero">
                <g id="svg_365">
                    <polygon id="e1_366" points="13.04 12.1018182 6.91 0.626363636 0.91 12.1018182"></polygon>
                </g>
            </g>
            <g id="svg_363" transform="translate(164.000000, 189.000000)" fill="#5AAAFA" fill-rule="nonzero">
                <g id="svg_365">
                    <polygon id="e1_366" points="13.04 12.1018182 6.91 0.626363636 0.91 12.1018182"></polygon>
                </g>
            </g>
            <g id="Group" transform="translate(10.000000, 30.000000)" fill="#000000" font-family="Arial-BoldMT, Arial" font-size="15.65" font-weight="bold">
                <text id="headerSVG.code" fill="#000000" font-family="Arial-BoldMT, Arial" font-size="15.65" font-weight="bold">
                    <tspan x="0" y="25.34">CODE</tspan>
                </text>
            </g>
            <g id="Group" transform="translate(135.000000, 30.000000)" fill="#000000" font-family="Arial-BoldMT, Arial" font-size="15.65" font-weight="bold">
                <text id="headerSVG.learn" fill="#000000" font-family="Arial-BoldMT, Arial" font-size="15.65" font-weight="bold">
                    <tspan x="129.79" y="24.52">LEARN</tspan>
                </text>
            </g>
            <g id="Group" transform="translate(10.000000, 164.000000)" fill="#000000" font-family="Arial-BoldMT, Arial" font-size="15.65" font-weight="bold">
                <text id="headerSVG.repository1">
                    <tspan x="0.04" y="14.3">REPOSITORY</tspan>
                </text>
            </g>
            <g id="Group" transform="translate(10.000000, 294.000000)" fill="#000000" font-family="Arial-BoldMT, Arial" font-size="15.65" font-weight="bold">
                <text id="headerSVG.repository2">
                    <tspan x="0.04" y="14.7">REPOSITORY</tspan>
                </text>
            </g>
            <g id="Group" transform="translate(10.000000, 427.000000)" fill="#000000" font-family="Arial-BoldMT, Arial" font-size="15.65" font-weight="bold">
                <text id="headerSVG.repository3">
                    <tspan x="0.04" y="14.72">REPOSITORY</tspan>
                </text>
            </g>
            <g id="Group" transform="translate(135.000000, 164.000000)" fill="#000000" font-family="Arial-BoldMT, Arial" font-size="15.65" font-weight="bold">
                <text id="headerSVG.devops">
                    <tspan x="0.04" y="14.72">DEVOPS</tspan>
                </text>
            </g>
            <g id="Group" transform="translate(135.000000, 180.000000)" fill="#000000" font-family="Arial-BoldMT, Arial" font-size="15.65" font-weight="bold">
                <text id="headerSVG.insights">
                    <tspan x="136.79" y="184.92">INSIGHTS</tspan>
                </text>
            </g>
            <path d="M99.05,379.63 L168.85,379.61" id="e2_line" stroke="#5AAAFA" stroke-width="2"></path>
            <path d="M170.94,192.73 L169.87,380.66" id="e3_line" stroke="#5AAAFA" stroke-width="2"></path>
            <circle id="svg_4-2" stroke="#5AAAFA" fill="#FFFFFF" fill-rule="nonzero" cx="170.97" cy="113.01" r="34.56"></circle>
            <path d="M175.28,125.86 L166.67,126.38 C165.89526,126.400105 165.224739,125.844896 165.1,125.08 L165.1,125.08 C165.08061,124.30201 165.641116,123.630259 166.41,123.51 L175,123 C175.77474,122.979895 176.445261,123.535104 176.57,124.3 L176.57,124.3 C176.637363,124.644895 176.564421,125.002414 176.367332,125.293354 C176.170244,125.584294 175.865279,125.784637 175.52,125.85 L175.28,125.86 Z" id="svg_342" fill="#2E3737" fill-rule="nonzero"></path>
            <path d="M175.28,130 L166.67,130.52 C165.89526,130.540105 165.224739,129.984896 165.1,129.22 L165.1,129.22 C165.08061,128.44201 165.641116,127.770259 166.41,127.65 L175.01,127.13 C175.78799,127.11061 176.459741,127.671116 176.58,128.44 L176.58,128.44 C176.716791,129.139066 176.274253,129.820573 175.58,129.98 L175.28,130 Z" id="svg_343" fill="#2E3737" fill-rule="nonzero"></path>
            <g id="svg_344" transform="translate(166.000000, 131.000000)" fill="#586565" fill-rule="nonzero">
                <path d="M0.41,1.12 L0.41,1.12 C0.490628278,3.51116038 2.44749908,5.41060608 4.84,5.42 C7.41546866,5.31208544 9.43928008,3.17756223 9.41,0.6 L9.41,0.47 L0.41,1.12 Z" id="svg_345"></path>
            </g>
            <g id="svg_346" transform="translate(157.000000, 89.000000)" fill="#FCE77F" fill-rule="nonzero">
                <path d="M27.53,14.17 C27.5162436,8.14161736 23.5243047,2.84615898 17.7326285,1.17341484 C11.9409523,-0.499329309 5.74037983,1.85234166 2.51463185,6.94509498 C-0.711116128,12.0378483 -0.1873929,18.6486856 3.8,23.17 C5.89,25.9 6.93,26.69 6.93,31.25 L6.93,31.51 C6.92733647,31.8203067 7.04805674,32.1189609 7.26560137,32.3402563 C7.48314601,32.5615517 7.77969314,32.6873591 8.09,32.69 L19.71,32.69 C20.3561732,32.69 20.88,32.1661732 20.88,31.52 L20.88,31.52 L20.88,31.26 C20.88,26.57 22.06,25.92 24.4,22.79 L24.4,22.79 C26.4047651,20.3627893 27.5103473,17.318023 27.53,14.17 L27.53,14.17 Z" id="svg_347"></path>
                <path d="M24.4,22.75 L24.53,22.48 C24.53,22.61 24.53,22.75 24.4,22.75 Z" id="svg_348"></path>
            </g>
            <path d="M184.53,103.17 C184.49188,95.7085487 178.461349,89.6646462 171,89.61 L171,121.69 L176.87,121.69 C177.516173,121.69 178.04,121.166173 178.04,120.52 L178.04,120.52 L178.04,120.26 C178.04,115.57 179.22,114.91 181.56,111.79 L181.56,111.79 C183.466625,109.319099 184.509975,106.290925 184.53,103.17 Z" id="svg_349" fill="#FCD432" fill-rule="nonzero"></path>
            <path d="M176.58,128.86 L176.58,128.34 C176.572151,128.048226 176.448661,127.771533 176.236721,127.570846 C176.024781,127.370159 175.741768,127.261934 175.45,127.27 L175.28,127.27 L170.84,127.53 L170.84,130.4 L175.54,130.14 C176.164814,130.061835 176.610576,129.495716 176.54,128.87 L176.58,128.86 Z" id="svg_350" fill="#030506" fill-rule="nonzero"></path>
            <path d="M176.58,124.69 L176.58,124.29 C176.526987,123.689717 176.000849,123.243837 175.4,123.29 L175.28,123.29 L170.84,123.55 L170.84,126.29 L175.54,126.03 C176.177823,125.971885 176.647855,125.407847 176.59,124.77 C176.59,124.77 176.58,124.72 176.58,124.69 Z" id="svg_351" fill="#030506" fill-rule="nonzero"></path>
            <path d="M175.54,131.47 L171.01,131.75 L171.01,136.31 C173.49,136.44 175.58,134.09 175.58,131.49 L175.54,131.47 Z" id="svg_352" fill="#3D4747" fill-rule="nonzero"></path>
            <circle id="svg_353" fill="#975AD1" fill-rule="nonzero" cx="170.84" cy="103.3" r="8.48"></circle>
            <path d="M170.84,94.82 L170.84,111.82 C175.53442,111.82 179.34,108.01442 179.34,103.32 C179.34,98.6255796 175.53442,94.82 170.84,94.82 Z" id="svg_354" fill="#FC42A0" fill-rule="nonzero"></path>
            <path d="M177.36,108.75 C178.968894,106.830337 179.639621,104.294038 179.19,101.83 L170.84,103.27 L165.36,109.66 C167.062284,111.144151 169.286271,111.887955 171.538917,111.726516 C173.791563,111.565076 175.886754,110.511731 177.36,108.8 L177.36,108.75 Z" id="svg_355" fill="#64BC46" fill-rule="nonzero"></path>
            <circle id="svg_4" stroke="#5AAAFA" fill="#FFFFFF" fill-rule="nonzero" cx="56.92" cy="113.01" r="34.56"></circle>
            <path d="M71.47,131.11 C71.47,133.88 65.04,136.11 57.12,136.11 C49.2,136.11 42.78,133.86 42.78,131.11 C42.78,128.36 49.2,126.11 57.12,126.11 C65.04,126.11 71.47,128.33 71.47,131.11 Z" id="Path" fill="#9EDCF2" fill-rule="nonzero"></path>
            <path d="M71.47,131.11 C71.47,133.88 65.04,136.11 57.12,136.11 C49.2,136.11 42.78,133.86 42.78,131.11 C42.78,128.36 49.2,126.11 57.12,126.11 C65.04,126.11 71.47,128.33 71.47,131.11 Z" id="Path" fill="#7DBCE7" fill-rule="nonzero"></path>
            <path d="M40.74,116.36 L40.32,117.8 C40.2570814,118.075601 40.4258629,118.350981 40.7,118.420004 C40.8554133,118.420603 41.0010763,118.34434 41.089123,118.216272 C41.1771698,118.088204 41.1962149,117.924891 41.14,117.78 L40.74,116.36 L40.74,116.36 Z" id="Path" fill="#9EDCF2" fill-rule="nonzero"></path>
            <path d="M82.42,110.32 L82.42,110.14 C78.7510846,109.463876 75.0161323,109.215551 71.29,109.4 C71.6984787,107.660605 71.883305,105.87619 71.84,104.09 C71.8859167,101.524137 70.8774361,99.0517326 69.05,97.25 C69.5945033,95.2886727 69.4533939,93.2002532 68.65,91.33 C68.65,91.33 66.65,90.71 62.25,93.68 C60.4811779,93.2333853 58.6643275,93.0050196 56.84,93 C54.8146285,92.9985681 52.7976855,93.2607707 50.84,93.78 C46.25,90.65 44.23,91.29 44.23,91.29 C43.3478964,93.3037407 43.2656583,95.5778029 44,97.65 C42.3629664,99.3831282 41.4661285,101.686208 41.5,104.07 C41.450767,105.865253 41.7147142,107.655356 42.28,109.36 C38.6462085,109.200564 35.0060809,109.455541 31.43,110.12 L31.43,110.3 C35.013505,109.641583 38.6603246,109.393318 42.3,109.56 C42.42,109.88 42.56,110.2 42.7,110.5 C38.9069567,110.600054 35.1383714,111.14034 31.47,112.11 L31.53,112.29 C35.21974,111.327965 39.0080749,110.794444 42.82,110.7 C44.37,113.57 47.41,115.45 52.82,116.02 C51.8303323,116.694192 51.1557591,117.740322 50.95,118.92 C49.89,119.42 46.58,120.65 44.58,117.22 C43.901504,116.018697 42.705237,115.199032 41.34,115 C41.34,115 39.27,115 41.2,116.29 C42.3249877,117.019945 43.1542489,118.125627 43.54,119.41 C43.54,119.41 44.79,123.6 50.8,122.24 L50.8,126.53 C50.6960197,127.430157 50.1036889,128.199418 49.26,128.53 C49.26,128.53 48.42,129.11 49.32,129.43 C49.32,129.43 53.21,129.75 53.21,126.56 L53.21,121.85 C53.21,121.85 53.05,119.97 53.97,119.34 L53.97,127.08 C53.97,127.08 53.91,128.93 52.97,129.63 C52.97,129.63 52.33,130.77 53.73,130.47 C55.3738419,130.140074 56.5425015,128.676085 56.5,127 L56.56,119.16 L57.2,119.16 L57.26,127 C57.2077496,128.69444 58.387463,130.178596 60.05,130.51 C61.45,130.83 60.81,129.67 60.81,129.67 C59.81,128.97 59.81,127.12 59.81,127.12 L59.81,119.44 C60.72,120.15 60.56,121.89 60.56,121.89 L60.56,126.6 C60.56,129.79 64.45,129.47 64.45,129.47 C65.35,129.15 64.51,128.57 64.51,128.57 C63.6808909,128.222508 63.0984496,127.461147 62.98,126.57 L62.98,120.38 C63.1428528,118.672278 62.3895764,117.005939 61,116 C66.79,115.43 69.56,113.57 70.84,110.66 C74.7071282,110.739212 78.5509809,111.279701 82.29,112.27 L82.35,112.09 C78.6145089,111.115981 74.7792019,110.57575 70.92,110.48 C71.04,110.18 71.14,109.88 71.24,109.56 C74.9992447,109.384187 78.7663307,109.632419 82.47,110.3 L82.42,110.32 Z" id="Path" fill="#010101" fill-rule="nonzero"></path>
            <path d="M66.22,104 C67.4302726,104.98416 68.1588353,106.441286 68.22,108 C68.22,114.87 63.12,115 56.81,115 C50.5,115 45.4,114 45.4,108 C45.4694015,106.463056 46.198324,105.030723 47.4,104.07 C49.45,102.2 52.92,103.2 56.85,103.2 C60.78,103.2 64.23,102.2 66.29,104.05 L66.22,104 Z" id="Path" fill="#F5CCB3" fill-rule="nonzero"></path>
            <path d="M53,108.26 C53,110.16 51.95,111.68 50.63,111.68 C49.31,111.68 48.25,110.14 48.25,108.26 C48.25,106.38 49.31,104.85 50.63,104.85 C51.95,104.85 53,106.37 53,108.26 Z" id="Path" fill="#FFFFFF" fill-rule="nonzero"></path>
            <path d="M52.23,108.3 C52.23,109.56 51.52,110.58 50.66,110.58 C49.8,110.58 49.08,109.58 49.08,108.3 C49.08,107.02 49.8,106 50.66,106 C51.52,106 52.23,107.05 52.23,108.3 Z" id="Path" fill="#AF5C51" fill-rule="nonzero"></path>
            <path d="M65.74,108.26 C65.74,110.16 64.68,111.68 63.37,111.68 C62.06,111.68 61,110.14 61,108.26 C61,106.38 62.06,104.85 63.38,104.85 C64.7,104.85 65.74,106.37 65.74,108.26 Z" id="Path" fill="#FFFFFF" fill-rule="nonzero"></path>
            <path d="M65,108.3 C65,109.56 64.28,110.58 63.43,110.58 C62.58,110.58 61.85,109.58 61.85,108.3 C61.85,107.02 62.57,106.03 63.43,106.03 C64.29,106.03 65,107.05 65,108.3 Z M57.46,111.3 C57.46,111.631371 57.1913708,111.9 56.86,111.9 C56.5286292,111.9 56.26,111.631371 56.26,111.3 C56.26,110.968629 56.5286292,110.7 56.86,110.7 C57.1756553,110.72109 57.4207038,110.983642 57.42,111.3 L57.46,111.3 Z M55.46,112.79 C55.4343012,112.724599 55.4467971,112.650354 55.4924886,112.596968 C55.53818,112.543583 55.6096056,112.519774 55.6781901,112.535068 C55.7467747,112.550361 55.8013184,112.60226 55.82,112.67 C55.9626599,113.100924 56.3660775,113.391385 56.82,113.39 C57.2690933,113.376744 57.6649867,113.091701 57.82,112.67 C57.8569553,112.575952 57.9610584,112.527283 58.056921,112.559237 C58.1527836,112.591191 58.2068645,112.692588 58.18,112.79 C57.9820912,113.381191 57.4284378,113.779701 56.805,113.779701 C56.1815622,113.779701 55.6279088,113.381191 55.43,112.79 L55.46,112.79 Z" id="Shape" fill="#AF5C51" fill-rule="nonzero"></path>
            <path d="M42.26,115.51 C42.26,115.67 42.08,115.78 41.84,115.78 C41.6,115.78 41.42,115.67 41.42,115.51 C41.42,115.35 41.6,115.23 41.84,115.23 C42.08,115.23 42.26,115.35 42.26,115.51 Z M43.42,116.14 C43.42,116.3 43.24,116.42 43,116.42 C42.76,116.42 42.58,116.3 42.58,116.14 C42.58,115.98 42.76,115.86 43,115.86 C43.24,115.86 43.42,116 43.42,116.14 L43.42,116.14 Z M44.11,116.98 C44.11,117.14 43.94,117.26 43.7,117.26 C43.46,117.26 43.28,117.14 43.28,116.98 C43.28,116.82 43.46,116.7 43.7,116.7 C43.94,116.7 44.11,116.82 44.11,117 L44.11,116.98 Z M44.75,117.98 C44.75,118.14 44.57,118.26 44.33,118.26 C44.09,118.26 43.92,118.14 43.92,117.98 C43.92,117.82 44.09,117.7 44.33,117.7 C44.57,117.7 44.75,117.78 44.75,117.94 L44.75,117.98 Z M45.45,118.86 C45.45,119.02 45.27,119.14 45.03,119.14 C44.79,119.14 44.61,119.02 44.61,118.86 C44.61,118.7 44.79,118.58 45.03,118.58 C45.27,118.58 45.45,118.66 45.45,118.82 L45.45,118.86 Z M46.45,119.64 C46.45,119.79 46.27,119.91 46.03,119.91 C45.79,119.91 45.61,119.79 45.61,119.64 C45.61,119.49 45.79,119.36 46.03,119.36 C46.27,119.36 46.41,119.44 46.41,119.6 L46.45,119.64 Z M47.79,120.13 C47.79,120.29 47.61,120.41 47.37,120.41 C47.13,120.41 46.95,120.29 46.95,120.13 C46.95,119.97 47.13,119.85 47.37,119.85 C47.61,119.85 47.75,119.93 47.75,120.09 L47.79,120.13 Z M49.12,120.13 C49.12,120.29 48.94,120.41 48.7,120.41 C48.46,120.41 48.28,120.29 48.28,120.13 C48.28,119.97 48.46,119.85 48.7,119.85 C48.94,119.85 49.08,119.93 49.08,120.09 L49.12,120.13 Z M50.48,119.91 C50.48,120.07 50.3,120.19 50.06,120.19 C49.82,120.19 49.64,120.07 49.64,119.91 C49.64,119.75 49.82,119.64 50.06,119.64 C50.3,119.64 50.44,119.71 50.44,119.87 L50.48,119.91 Z" id="Shape" fill="#C4E5D9" fill-rule="nonzero"></path>
            <circle id="svg_4-2-2" stroke="#5AAAFA" fill="#FFFFFF" fill-rule="nonzero" cx="56.92" cy="244.66" r="34.56"></circle>
            <path d="M71.47,262.75 C71.47,265.53 65.04,267.75 57.12,267.75 C49.2,267.75 42.78,265.5 42.78,262.75 C42.78,260 49.2,257.75 57.12,257.75 C65.04,257.75 71.47,260 71.47,262.75 Z" id="Path" fill="#9EDCF2" fill-rule="nonzero"></path>
            <path d="M71.47,262.75 C71.47,265.53 65.04,267.75 57.12,267.75 C49.2,267.75 42.78,265.5 42.78,262.75 C42.78,260 49.2,257.75 57.12,257.75 C65.04,257.75 71.47,260 71.47,262.75 Z" id="Path" fill="#7DBCE7" fill-rule="nonzero"></path>
            <path d="M40.74,248 L40.32,249.44 C40.32,249.44 40.22,249.96 40.7,250.05 C40.8546918,250.054251 41.0011543,249.980435 41.0897626,249.853564 C41.1783708,249.726693 41.1972487,249.563771 41.14,249.42 L40.74,248 L40.74,248 Z" id="Path" fill="#9EDCF2" fill-rule="nonzero"></path>
            <path d="M82.42,242 L82.42,241.82 C78.7510846,241.143876 75.0161323,240.895551 71.29,241.08 C71.6984787,239.340605 71.883305,237.55619 71.84,235.77 C71.887097,233.203916 70.8784338,230.731065 69.05,228.93 C69.5920267,226.965069 69.4509994,224.874339 68.65,223 C68.65,223 66.65,222.39 62.25,225.36 C60.4673578,224.916875 58.636886,224.695203 56.8,224.7 C54.7746285,224.698568 52.7576855,224.960771 50.8,225.48 C46.21,222.35 44.19,222.98 44.19,222.98 C43.3333622,224.98764 43.2655129,227.244525 44,229.3 C42.3611431,231.031974 41.4640049,233.335825 41.5,235.72 C41.4515824,237.515205 41.7155089,239.305168 42.28,241.01 C38.6462085,240.850564 35.0060809,241.105541 31.43,241.77 L31.43,241.95 C35.013505,241.291583 38.6603246,241.043318 42.3,241.21 C42.42,241.53 42.56,241.85 42.7,242.15 C38.9060745,242.239536 35.1362632,242.779999 31.47,243.76 L31.53,243.94 C35.2185292,242.970536 39.0073437,242.433592 42.82,242.34 C44.37,245.22 47.41,247.09 52.82,247.67 C51.8522722,248.352139 51.1970738,249.392536 51,250.56 C49.94,251.06 46.63,252.3 44.63,248.87 C43.944869,247.673818 42.7451077,246.861671 41.38,246.67 C41.38,246.67 39.31,246.67 41.24,247.97 C42.363106,248.697465 43.1921524,249.799318 43.58,251.08 C43.58,251.08 44.83,255.27 50.84,253.92 L50.84,258.2 C50.7338941,259.099293 50.14231,259.867584 49.3,260.2 C49.3,260.2 48.46,260.78 49.36,261.1 C49.36,261.1 53.25,261.42 53.25,258.22 L53.25,253.52 C53.25,253.52 53.09,251.64 54.01,251 L54.01,258.74 C54.01,258.74 53.95,260.6 53.01,261.3 C53.01,261.3 52.37,262.43 53.77,262.13 C55.4394952,261.810044 56.6249735,260.318636 56.56,258.62 L56.62,250.78 L57.26,250.78 L57.32,258.62 C57.2635494,260.315831 58.4451603,261.802374 60.11,262.13 C61.51,262.45 60.87,261.3 60.87,261.3 C59.87,260.6 59.87,258.74 59.87,258.74 L59.87,251.1 C60.78,251.82 60.62,253.56 60.62,253.56 L60.62,258.26 C60.62,261.46 64.51,261.14 64.51,261.14 C65.41,260.82 64.57,260.24 64.57,260.24 C63.7421744,259.890847 63.1603887,259.130343 63.04,258.24 L63.04,252 C63.1874056,250.298709 62.4273757,248.645644 61.04,247.65 C66.83,247.07 69.6,245.22 70.88,242.3 C74.7478645,242.378347 78.5922149,242.922264 82.33,243.92 L82.39,243.74 C78.6564983,242.756073 74.8200268,242.215678 70.96,242.13 C71.08,241.83 71.18,241.53 71.28,241.21 C75.0392447,241.034187 78.8063307,241.282419 82.51,241.95 L82.42,242 Z" id="Path" fill="#010101" fill-rule="nonzero"></path>
            <path d="M66.22,235.6 C67.4302726,236.58416 68.1588353,238.041286 68.22,239.6 C68.22,246.46 63.12,246.6 56.81,246.6 C50.5,246.6 45.4,245.6 45.4,239.6 C45.4694015,238.063056 46.198324,236.630723 47.4,235.67 C49.45,233.8 52.92,234.79 56.85,234.79 C60.78,234.79 64.23,233.79 66.29,235.65 L66.22,235.6 Z" id="Path" fill="#F5CCB3" fill-rule="nonzero"></path>
            <path d="M53,239.91 C53,241.81 51.95,243.32 50.63,243.32 C49.31,243.32 48.25,241.79 48.25,239.91 C48.25,238.03 49.31,236.5 50.63,236.5 C51.95,236.5 53,238 53,239.91 Z" id="Path" fill="#FFFFFF" fill-rule="nonzero"></path>
            <path d="M52.23,240 C52.23,241.26 51.52,242.27 50.66,242.27 C49.8,242.27 49.08,241.27 49.08,240 C49.08,238.73 49.8,237.73 50.66,237.73 C51.52,237.73 52.23,238.69 52.23,240 Z" id="Path" fill="#AF5C51" fill-rule="nonzero"></path>
            <path d="M65.74,239.91 C65.74,241.81 64.68,243.32 63.37,243.32 C62.06,243.32 61,241.79 61,239.91 C61,238.03 62.06,236.5 63.38,236.5 C64.7,236.5 65.74,238 65.74,239.91 Z" id="Path" fill="#FFFFFF" fill-rule="nonzero"></path>
            <path d="M65,240 C65,241.26 64.28,242.27 63.43,242.27 C62.58,242.27 61.85,241.27 61.85,240 C61.85,238.73 62.57,237.73 63.43,237.73 C64.29,237.73 65,238.69 65,240 Z M57.46,243 C57.46,243.331371 57.1913708,243.6 56.86,243.6 C56.5286292,243.6 56.26,243.331371 56.26,243 C56.2572652,242.840047 56.3196007,242.685841 56.4327208,242.572721 C56.5458409,242.459601 56.7000474,242.397265 56.86,242.4 C57.1538795,242.41821 57.3911193,242.646977 57.42,242.94 L57.46,243 Z M55.46,244.5 C55.4343012,244.434599 55.4467971,244.360354 55.4924886,244.306968 C55.53818,244.253583 55.6096056,244.229774 55.6781901,244.245068 C55.7467747,244.260361 55.8013184,244.31226 55.82,244.38 C55.9626599,244.810924 56.3660775,245.101385 56.82,245.1 C57.2690933,245.086744 57.6649867,244.801701 57.82,244.38 C57.8569553,244.285952 57.9610584,244.237283 58.056921,244.269237 C58.1527836,244.301191 58.2068645,244.402588 58.18,244.5 C57.9820912,245.091191 57.4284378,245.489701 56.805,245.489701 C56.1815622,245.489701 55.6279088,245.091191 55.43,244.5 L55.46,244.5 Z" id="Shape" fill="#AF5C51" fill-rule="nonzero"></path>
            <path d="M42.26,247.15 C42.26,247.31 42.08,247.43 41.84,247.43 C41.6,247.43 41.42,247.31 41.42,247.15 C41.42,246.99 41.6,246.87 41.84,246.87 C42.08,246.87 42.26,247 42.26,247.15 Z M43.42,247.79 C43.42,247.95 43.24,248.07 43,248.07 C42.76,248.07 42.58,247.95 42.58,247.79 C42.58,247.63 42.76,247.51 43,247.51 C43.24,247.51 43.42,247.63 43.42,247.79 L43.42,247.79 Z M44.11,248.63 C44.11,248.79 43.94,248.91 43.7,248.91 C43.46,248.91 43.28,248.79 43.28,248.63 C43.28,248.47 43.46,248.35 43.7,248.35 C43.94,248.35 44.11,248.47 44.11,248.63 L44.11,248.63 Z M44.75,249.63 C44.75,249.79 44.57,249.91 44.33,249.91 C44.09,249.91 43.92,249.79 43.92,249.63 C43.92,249.47 44.09,249.35 44.33,249.35 C44.57,249.35 44.75,249.43 44.75,249.59 L44.75,249.63 Z M45.45,250.5 C45.45,250.66 45.27,250.78 45.03,250.78 C44.79,250.78 44.61,250.66 44.61,250.5 C44.61,250.34 44.79,250.22 45.03,250.22 C45.27,250.22 45.45,250.3 45.45,250.46 L45.45,250.5 Z M46.45,251.28 C46.45,251.44 46.27,251.56 46.03,251.56 C45.79,251.56 45.61,251.44 45.61,251.28 C45.61,251.12 45.79,251 46.03,251 C46.27,251 46.41,251.08 46.41,251.24 L46.45,251.28 Z M47.79,251.78 C47.79,251.94 47.61,252.06 47.37,252.06 C47.13,252.06 46.95,251.94 46.95,251.78 C46.95,251.62 47.13,251.5 47.37,251.5 C47.61,251.5 47.75,251.58 47.75,251.74 L47.79,251.78 Z M49.12,251.78 C49.12,251.94 48.94,252.06 48.7,252.06 C48.46,252.06 48.28,251.94 48.28,251.78 C48.28,251.62 48.46,251.5 48.7,251.5 C48.94,251.5 49.08,251.58 49.08,251.74 L49.12,251.78 Z M50.48,251.56 C50.48,251.72 50.3,251.84 50.06,251.84 C49.82,251.84 49.64,251.72 49.64,251.56 C49.64,251.4 49.82,251.28 50.06,251.28 C50.3,251.28 50.44,251.36 50.44,251.52 L50.48,251.56 Z" id="Shape" fill="#C4E5D9" fill-rule="nonzero"></path>
            <circle id="svg_4-3" stroke="#5AAAFA" fill="#FFFFFF" fill-rule="nonzero" cx="56.92" cy="377.28" r="34.56"></circle>
            <path d="M71.47,395.37 C71.47,398.15 65.04,400.37 57.12,400.37 C49.2,400.37 42.78,398.12 42.78,395.37 C42.78,392.62 49.2,390.37 57.12,390.37 C65.04,390.37 71.47,392.6 71.47,395.37 Z" id="Path" fill="#9EDCF2" fill-rule="nonzero"></path>
            <path d="M71.47,395.37 C71.47,398.15 65.04,400.37 57.12,400.37 C49.2,400.37 42.78,398.12 42.78,395.37 C42.78,392.62 49.2,390.37 57.12,390.37 C65.04,390.37 71.47,392.6 71.47,395.37 Z" id="Path" fill="#7DBCE7" fill-rule="nonzero"></path>
            <path d="M40.74,380.63 L40.32,382.07 C40.2575517,382.343203 40.4272477,382.61561 40.7,382.68 C40.8546918,382.684251 41.0011543,382.610435 41.0897626,382.483564 C41.1783708,382.356693 41.1972487,382.193771 41.14,382.05 L40.74,380.63 L40.74,380.63 Z" id="Path" fill="#9EDCF2" fill-rule="nonzero"></path>
            <path d="M82.42,374.59 L82.42,374.41 C78.7510846,373.733876 75.0161323,373.485551 71.29,373.67 C71.6984787,371.930605 71.883305,370.14619 71.84,368.36 C71.887097,365.793916 70.8784338,363.321065 69.05,361.52 C69.5920267,359.555069 69.4509994,357.464339 68.65,355.59 C68.65,355.59 66.65,354.97 62.25,357.95 C60.4673578,357.506875 58.636886,357.285203 56.8,357.29 C54.7746285,357.288568 52.7576855,357.550771 50.8,358.07 C46.21,354.93 44.19,355.57 44.19,355.57 C43.3069632,357.578963 43.2176376,359.847833 43.94,361.92 C42.3011431,363.651974 41.4040049,365.955825 41.44,368.34 C41.3915824,370.135205 41.6555089,371.925168 42.22,373.63 C38.5862085,373.470564 34.9460809,373.725541 31.37,374.39 L31.37,374.57 C34.953505,373.911583 38.6003246,373.663318 42.24,373.83 C42.36,374.15 42.5,374.47 42.64,374.76 C38.8461694,374.858676 35.0770398,375.402398 31.41,376.38 L31.47,376.56 C35.179603,375.599419 38.9887972,375.075864 42.82,375 C44.37,377.88 47.41,379.75 52.82,380.33 C51.8611553,381.002744 51.20699,382.027124 51,383.18 C49.94,383.68 46.63,384.92 44.63,381.49 C43.944869,380.293818 42.7451077,379.481671 41.38,379.29 C41.38,379.29 39.31,379.29 41.24,380.59 C42.363106,381.317465 43.1921524,382.419318 43.58,383.7 C43.58,383.7 44.83,387.89 50.84,386.54 L50.84,390.82 C50.7338941,391.719293 50.14231,392.487584 49.3,392.82 C49.3,392.82 48.46,393.4 49.36,393.72 C49.36,393.72 53.25,394.04 53.25,390.84 L53.25,386.14 C53.25,386.14 53.09,384.26 54.01,383.62 L54.01,391.36 C54.01,391.36 53.95,393.22 53.01,393.92 C53.01,393.92 52.37,395.05 53.77,394.75 C55.4394952,394.430044 56.6249735,392.938636 56.56,391.24 L56.62,383.4 L57.26,383.4 L57.32,391.24 C57.2635494,392.935831 58.4451603,394.422374 60.11,394.75 C61.51,395.07 60.87,393.92 60.87,393.92 C59.87,393.22 59.87,391.36 59.87,391.36 L59.87,383.68 C60.78,384.4 60.62,386.14 60.62,386.14 L60.62,390.84 C60.62,394.04 64.51,393.72 64.51,393.72 C65.41,393.4 64.57,392.82 64.57,392.82 C63.7421744,392.470847 63.1603887,391.710343 63.04,390.82 L63.04,384.64 C63.1874056,382.938709 62.4273757,381.285644 61.04,380.29 C66.83,379.71 69.6,377.86 70.88,374.94 C74.7478645,375.018347 78.5922149,375.562264 82.33,376.56 L82.39,376.38 C78.6557194,375.398553 74.8199331,374.854899 70.96,374.76 C71.08,374.47 71.18,374.17 71.28,373.85 C75.0392447,373.674187 78.8063307,373.922419 82.51,374.59 L82.42,374.59 Z" id="Path" fill="#010101" fill-rule="nonzero"></path>
            <path d="M66.22,368.22 C67.4175553,369.192742 68.1447707,370.628992 68.22,372.17 C68.22,379.03 63.12,379.17 56.81,379.17 C50.5,379.17 45.4,378.22 45.4,372.17 C45.4694015,370.633056 46.198324,369.200723 47.4,368.24 C49.45,366.37 52.92,367.36 56.85,367.36 C60.78,367.36 64.23,366.36 66.29,368.22 L66.22,368.22 Z" id="Path" fill="#F5CCB3" fill-rule="nonzero"></path>
            <path d="M53,372.53 C53,374.43 51.95,375.94 50.63,375.94 C49.31,375.94 48.25,374.41 48.25,372.53 C48.25,370.65 49.31,369.12 50.63,369.12 C51.95,369.12 53,370.64 53,372.53 Z" id="Path" fill="#FFFFFF" fill-rule="nonzero"></path>
            <path d="M52.23,372.57 C52.23,373.83 51.52,374.84 50.66,374.84 C49.8,374.84 49.08,373.84 49.08,372.57 C49.08,371.3 49.8,370.3 50.66,370.3 C51.52,370.3 52.23,371.31 52.23,372.57 Z" id="Path" fill="#AF5C51" fill-rule="nonzero"></path>
            <path d="M65.74,372.53 C65.74,374.43 64.68,375.94 63.37,375.94 C62.06,375.94 61,374.41 61,372.53 C61,370.65 62.06,369.12 63.38,369.12 C64.7,369.12 65.74,370.64 65.74,372.53 Z" id="Path" fill="#FFFFFF" fill-rule="nonzero"></path>
            <path d="M65,372.57 C65,373.83 64.28,374.84 63.43,374.84 C62.58,374.84 61.85,373.84 61.85,372.57 C61.85,371.3 62.57,370.3 63.43,370.3 C64.29,370.3 65,371.31 65,372.57 Z M57.46,375.57 C57.46,375.901371 57.1913708,376.17 56.86,376.17 C56.5286292,376.17 56.26,375.901371 56.26,375.57 C56.2572652,375.410047 56.3196007,375.255841 56.4327208,375.142721 C56.5458409,375.029601 56.7000474,374.967265 56.86,374.97 C57.1718395,374.990803 57.4154842,375.2475 57.42,375.56 L57.46,375.57 Z M55.46,377.07 C55.4343012,377.004599 55.4467971,376.930354 55.4924886,376.876968 C55.53818,376.823583 55.6096056,376.799774 55.6781901,376.815068 C55.7467747,376.830361 55.8013184,376.88226 55.82,376.95 C55.9626599,377.380924 56.3660775,377.671385 56.82,377.67 C57.2690933,377.656744 57.6649867,377.371701 57.82,376.95 C57.8569553,376.855952 57.9610584,376.807283 58.056921,376.839237 C58.1527836,376.871191 58.2068645,376.972588 58.18,377.07 C57.9820912,377.661191 57.4284378,378.059701 56.805,378.059701 C56.1815622,378.059701 55.6279088,377.661191 55.43,377.07 L55.46,377.07 Z" id="Shape" fill="#AF5C51" fill-rule="nonzero"></path>
            <path d="M42.26,379.77 C42.26,379.93 42.08,380.05 41.84,380.05 C41.6,380.05 41.42,379.93 41.42,379.77 C41.42,379.61 41.6,379.49 41.84,379.49 C42.08,379.49 42.26,379.61 42.26,379.77 Z M43.42,380.41 C43.42,380.57 43.24,380.69 43,380.69 C42.76,380.69 42.58,380.57 42.58,380.41 C42.58,380.25 42.76,380.13 43,380.13 C43.24,380.13 43.42,380.25 43.42,380.41 L43.42,380.41 Z M44.11,381.25 C44.11,381.41 43.94,381.53 43.7,381.53 C43.46,381.53 43.28,381.41 43.28,381.25 C43.28,381.09 43.46,380.97 43.7,380.97 C43.94,380.97 44.11,381.09 44.11,381.25 L44.11,381.25 Z M44.75,382.25 C44.75,382.41 44.57,382.53 44.33,382.53 C44.09,382.53 43.92,382.41 43.92,382.25 C43.92,382.09 44.09,381.97 44.33,381.97 C44.57,381.97 44.75,382.05 44.75,382.21 L44.75,382.25 Z M45.45,383.12 C45.45,383.28 45.27,383.4 45.03,383.4 C44.79,383.4 44.61,383.28 44.61,383.12 C44.61,382.96 44.79,382.84 45.03,382.84 C45.27,382.84 45.45,382.92 45.45,383.08 L45.45,383.12 Z M46.45,383.9 C46.45,384.06 46.27,384.18 46.03,384.18 C45.79,384.18 45.61,384.06 45.61,383.9 C45.61,383.74 45.79,383.62 46.03,383.62 C46.27,383.62 46.41,383.7 46.41,383.86 L46.45,383.9 Z M47.79,384.4 C47.79,384.56 47.61,384.68 47.37,384.68 C47.13,384.68 46.95,384.56 46.95,384.4 C46.95,384.24 47.13,384.12 47.37,384.12 C47.61,384.12 47.75,384.2 47.75,384.36 L47.79,384.4 Z M49.12,384.4 C49.12,384.56 48.94,384.68 48.7,384.68 C48.46,384.68 48.28,384.56 48.28,384.4 C48.28,384.24 48.46,384.12 48.7,384.12 C48.94,384.12 49.08,384.2 49.08,384.36 L49.12,384.4 Z M50.48,384.18 C50.48,384.34 50.3,384.46 50.06,384.46 C49.82,384.46 49.64,384.34 49.64,384.18 C49.64,384.02 49.82,383.9 50.06,383.9 C50.3,383.9 50.44,384 50.44,384.14 L50.48,384.18 Z" id="Shape" fill="#C4E5D9" fill-rule="nonzero"></path>
        </g>
    </g>
</svg>